<?xml version="1.0" encoding="UTF-8" standalone="no"?>
<!-- Created with Inkscape (http://www.inkscape.org/) -->
<svg width="64" height="64" viewBox="0 0 64 64" version="1.1" id="svg5" xml:space="preserve" xmlns="http://www.w3.org/2000/svg" xmlns:svg="http://www.w3.org/2000/svg">
    <style>
        path {
            fill: maroon;
            stroke: maroon;
        }
        @media (prefers-color-scheme: dark) {
            path {
                fill: indianred;
                stroke: indianred;
            }
        }
    </style>
    <defs id="defs2"/><g id="layer1"><path style="stroke-width:2" d="M 51.680349,63.057574 C 51.211983,62.53924 50.332287,60.53995 49.725468,58.614708 49.118648,56.689465 48.348669,54.025782 48.014402,52.695409 l -0.607757,-2.418858 -1.245977,4.929024 c -0.685289,2.710968 -1.516892,5.435236 -1.848009,6.053931 -0.331116,0.618699 -0.910693,1.124907 -1.287948,1.124907 -0.377255,0 -1.113532,-0.312681 -1.636173,-0.694843 C 40.61423,61.123382 40.350154,59.702473 39.962319,54.015528 39.70054,50.176967 38.87245,43.764763 38.12212,39.766183 c -0.750329,-3.99858 -1.36654,-7.694236 -1.369357,-8.21257 -0.0029,-0.518335 0.363582,-0.942426 0.81422,-0.942426 0.450636,0 1.039953,0.545261 1.309593,1.211691 0.26964,0.66643 0.869853,2.908056 1.333806,4.981394 0.463953,2.073337 1.207496,5.921908 1.652316,8.552378 0.444823,2.63047 0.808766,6.011088 0.808766,7.512484 0,1.734575 0.187548,2.542262 0.514419,2.215391 0.282931,-0.282928 1.053912,-3.248757 1.713294,-6.590728 0.942488,-4.776861 1.375563,-6.042282 2.025083,-5.917197 0.454416,0.08751 1.121583,0.763246 1.482593,1.501627 0.36101,0.738383 1.066664,3.462972 1.568122,6.054644 0.501455,2.591673 1.089716,4.712132 1.307244,4.712132 0.217529,0 0.55494,-1.556156 0.749803,-3.458122 0.194862,-1.901966 1.460483,-7.899836 2.812488,-13.328598 1.352004,-5.428764 3.037983,-12.657367 3.746612,-16.063565 1.180872,-5.676128 1.271494,-5.900893 1.085687,-2.692646 -0.11151,1.925242 -0.817272,8.83188 -1.568376,15.348083 -0.751097,6.516204 -1.730251,15.3644 -2.175884,19.662658 -0.445638,4.298254 -0.971895,8.23625 -1.169465,8.751099 C 54.56552,63.578763 53.982685,64 53.467899,64 52.953112,64 52.148715,63.575909 51.680349,63.057574 Z M 12.814231,44.347924 C 11.646593,43.931973 10.071395,43.132728 9.3137907,42.571826 8.556186,42.010923 7.3910661,40.750848 6.7246362,39.771659 5.8449149,38.479081 5.5129453,37.210361 5.5129453,35.140827 c 0,-1.567768 0.206637,-2.978196 0.4591921,-3.134284 0.2525568,-0.156089 0.832674,0.01144 1.2891533,0.372114 0.4564776,0.36075 1.0934635,2.231108 1.4155259,4.15635 0.4186526,2.50266 0.9301629,3.783402 1.7944904,4.49313 1.003997,0.824416 1.948713,0.961347 5.573131,0.807794 3.737704,-0.158345 4.743638,-0.419555 7.007334,-1.819536 1.559786,-0.964647 3.135777,-2.509741 3.845089,-3.769705 0.66108,-1.174285 1.360467,-3.181932 1.554191,-4.461439 0.193727,-1.279507 0.08058,-3.679059 -0.251453,-5.332338 -0.332027,-1.653279 -1.598606,-5.165807 -2.81462,-7.805619 -1.216014,-2.639812 -2.09962,-4.910975 -1.963565,-5.047028 0.136046,-0.136063 0.63412,-0.09896 1.106814,0.08243 0.472694,0.181388 1.585708,1.461585 2.473365,2.844878 0.887657,1.383294 2.148377,3.723305 2.801601,5.200026 0.653225,1.476722 1.510725,3.897889 1.905556,5.380371 0.394831,1.48248 0.720751,3.924241 0.724266,5.426133 0.0045,1.920761 -0.432871,3.597781 -1.474562,5.653997 -0.863178,1.703843 -2.247363,3.431053 -3.31821,4.14052 -1.010492,0.669479 -3.053766,1.578498 -4.540612,2.020045 -1.486845,0.441545 -3.931645,0.792173 -5.43289,0.779172 -1.501243,-0.01296 -3.684873,-0.363963 -4.852511,-0.779914 z M 7.1285331,12.826258 C 5.7956732,12.204511 4.1598905,11.183932 3.4934605,10.558304 2.8270305,9.9326748 2.2817696,9.2275212 2.2817696,8.9912936 c 0,-0.2362276 1.1266167,0.1695223 2.5035906,0.9016663 1.7455922,0.9281401 3.3582165,1.3311721 5.3263358,1.3311721 1.552511,0 5.090906,-0.604927 7.863098,-1.3442802 C 20.746988,9.1404965 27.98308,6.8262023 34.054998,4.7369729 40.126913,2.6477435 45.966516,0.66795669 47.031892,0.33744444 c 1.065376,-0.33051225 2.365233,-0.43661935 2.88857,-0.23579673 0.857231,0.32895051 0.87302,0.4845535 0.159321,1.57020669 C 49.644069,2.3346459 47.980705,3.523828 46.383419,4.3144815 44.786131,5.1051367 38.026651,7.5045388 31.362353,9.6464835 20.809224,13.038323 18.61993,13.567761 14.39868,13.748819 10.319156,13.923798 9.1682969,13.777765 7.1285331,12.826258 Z" id="path364"/></g></svg>